<?xml version="1.0" encoding="utf-8"?>
<!-- Generator: Adobe Illustrator 26.4.1, SVG Export Plug-In . SVG Version: 6.00 Build 0)  -->
<svg version="1.1" id="Layer_1" xmlns="http://www.w3.org/2000/svg" xmlns:xlink="http://www.w3.org/1999/xlink" x="0px" y="0px"
	 viewBox="0 0 1409.7 80.1" style="enable-background:new 0 0 1409.7 80.1;" xml:space="preserve">
<style type="text/css">
	.st0{fill:#FFFFFF;}
</style>
<g>
	<g>
		<path class="st0" d="M0,78.6V1.4h23.6C38.8,40,41.9,48.8,42.8,52.1h0.4c-0.8-9.2-1-22.3-1-34.3V1.4h18.1v77.3H37.4
			c-16.3-43-18.8-50.2-19.8-53.2h-0.3c0.7,9.6,0.8,23.1,0.8,36.3v16.9L0,78.6L0,78.6z"/>
		<path class="st0" d="M91.1,62.6l-3.6,16H67.8L87.6,1.4h27.2l20.5,77.3h-20.8l-3.9-16H91.1V62.6z M107.4,46.7
			c-2.8-11.7-5.2-23.2-6.6-30.9h-0.4C99.1,24,96.6,35.5,94,46.7H107.4z"/>
		<path class="st0" d="M147.7,16.9h-18.5V1.4h57v15.5h-18.4v61.8h-20V16.9H147.7z"/>
		<path class="st0" d="M203.3,62.6l-3.6,16H180l19.8-77.3H227l20.5,77.3h-20.8l-3.9-16H203.3z M219.6,46.7
			c-2.8-11.7-5.2-23.2-6.6-30.9h-0.4c-1.3,8.2-3.8,19.7-6.4,30.9H219.6z"/>
		<path class="st0" d="M255,1.4h20v61.8h30.2l-2,15.5H255V1.4z"/>
		<path class="st0" d="M332.3,1.4v77.3h-20V1.4H332.3z"/>
		<path class="st0" d="M364.1,62.6l-3.6,16h-19.7l19.8-77.3h27.2l20.5,77.3h-20.8l-3.9-16H364.1z M380.4,46.7
			c-2.8-11.7-5.2-23.2-6.6-30.9h-0.4c-1.3,8.2-3.8,19.7-6.4,30.9H380.4z"/>
		<path class="st0" d="M438.6,1.4h20v61.8h30.2l-2,15.5h-48.3L438.6,1.4L438.6,1.4z"/>
		<path class="st0" d="M518.5,62.6l-3.6,16h-19.7L515,1.4h27.2l20.5,77.3h-20.8l-3.9-16h-19.5V62.6z M534.8,46.7
			c-2.8-11.7-5.2-23.2-6.6-30.9h-0.4c-1.3,8.2-3.8,19.7-6.4,30.9H534.8z"/>
		<path class="st0" d="M585,55.4c0.7,6.3,3.8,10.3,10.4,10.3c6.6,0,8.7-3.2,8.7-7.5c0-5.6-3.4-8.3-13.5-11.7
			c-17.4-5.7-23-12.6-23-23.6c0-14.8,11.2-23,27.1-23c18.8,0,27.1,9.9,27.8,23.3h-19c-0.5-5-2.4-9.2-8.7-9.2c-4.9,0-7.4,2.5-7.4,6.7
			c0,4.7,2.9,6.4,12.7,9.7c18.5,6.2,24.3,13.5,24.3,25.6c0,14-9.8,23.9-29.3,23.9c-18.9,0-28.5-9.9-29.2-24.6L585,55.4L585,55.4z"/>
		<path class="st0" d="M650.7,55.4c0.7,6.3,3.8,10.3,10.4,10.3c6.6,0,8.7-3.2,8.7-7.5c0-5.6-3.4-8.3-13.5-11.7
			c-17.4-5.7-23-12.6-23-23.6c0-14.8,11.2-23,27.1-23c18.8,0,27.1,9.9,27.8,23.3h-19c-0.5-5-2.4-9.2-8.7-9.2c-4.9,0-7.4,2.5-7.4,6.7
			c0,4.7,2.9,6.4,12.7,9.7c18.5,6.2,24.3,13.5,24.3,25.6c0,14-9.8,23.9-29.3,23.9c-18.9,0-28.5-9.9-29.2-24.6L650.7,55.4L650.7,55.4
			z"/>
		<path class="st0" d="M717.8,62.6l-3.6,16h-19.7l19.8-77.3h27.2L762,78.6h-20.8l-3.9-16H717.8z M734.1,46.7
			c-2.8-11.7-5.2-23.2-6.6-30.9h-0.4c-1.3,8.2-3.8,19.7-6.4,30.9H734.1z"/>
		<path class="st0" d="M769.4,1.4h20v61.8h30.2l-2,15.5h-48.3L769.4,1.4L769.4,1.4z"/>
		<path class="st0" d="M827.7,1.4h20v61.8h30.2l-2,15.5h-48.3L827.7,1.4L827.7,1.4z"/>
		<path class="st0" d="M935,46.5h-29.7v16.8h33.2l-2.3,15.4h-50.3V1.4h50.3v15.5h-30.9V31H935V46.5z"/>
		<path class="st0" d="M1028,53.5c0-12,0.2-28.3,0.5-37.5h-0.6c-2.7,16.5-7.6,42.4-12.2,62.6h-16.2c-3.5-19.6-8.3-46-10.8-62.6H988
			c0.5,9,0.9,24.8,0.9,38.2v24.5h-17.8V1.4h28.7c3.3,14.8,7.3,37.4,8.7,48.6h0.4c1.7-11.9,6.4-31.9,10.2-48.6h28v77.3H1028V53.5z"/>
		<path class="st0" d="M1123.1,39.6c0,24.3-9.8,40.5-33.9,40.5c-22.9,0-32.6-16.3-32.6-40.7c0-22.3,10.2-39.4,33.7-39.4
			C1113.1,0,1123.1,16.8,1123.1,39.6z M1077.4,39.3c0,16.1,3.6,25.8,12.5,25.8c9.6,0,12.4-8.9,12.4-25.8c0-15-2.8-24.3-12.6-24.3
			C1080.7,15,1077.4,23.9,1077.4,39.3z"/>
		<path class="st0" d="M1152,48.3v30.3h-19.6V1.4h32.3c16.2,0,25,8.4,25,21.2c0,10.5-5.3,15.6-11.3,18c7.4,3,9.9,9,9.9,18.6v2.5
			c0,7.1,0.3,13.3,0.9,16.9H1170c-1.1-3.1-1.4-8.7-1.4-17.1v-2.3c0-8.4-2.4-10.9-10.3-10.9C1158.3,48.3,1152,48.3,1152,48.3z
			 M1152,33.8h7.6c6.5,0,10.4-2.4,10.4-9.3c0-6.2-3.5-8.7-9.1-8.7h-8.9V33.8z"/>
		<path class="st0" d="M1220.1,1.4v77.3h-20V1.4H1220.1z"/>
		<path class="st0" d="M1231.1,1.4h20v61.8h30.2l-2,15.5H1231V1.4H1231.1z"/>
		<path class="st0" d="M1289.3,1.4h20v61.8h30.2l-2,15.5h-48.3V1.4H1289.3z"/>
		<path class="st0" d="M1409.7,39.6c0,24.3-9.8,40.5-33.9,40.5c-22.9,0-32.6-16.3-32.6-40.7c0-22.3,10.2-39.4,33.7-39.4
			C1399.7,0,1409.7,16.8,1409.7,39.6z M1364,39.3c0,16.1,3.6,25.8,12.5,25.8c9.6,0,12.4-8.9,12.4-25.8c0-15-2.8-24.3-12.6-24.3
			C1367.3,15,1364,23.9,1364,39.3z"/>
	</g>
</g>
</svg>
